# xmcd
#
# Track frame offsets:
#	150
#	19187
#	35116
#	51519
#	69232
#	88245
#	94389
#	110496
#	125619
#	142862
#	156856
#	171635
#	200645
#
# Disc length: 4440 seconds
#
# Revision: 1
# Processed by: cddbd v1.4PL0 Copyright (c) Steve Scherf et al.
# Submitted via: audiograbber 1.81.03
#
DISCID=c411560d
DTITLE=Amanda Perez - Angel
DYEAR=2003
DGENRE=R&B
TTITLE0=I Like It
TTITLE1=In My life
TTITLE2=Angel
TTITLE3=I Still Love You
TTITLE4=Never
TTITLE5=The Call (Skit/Interlude)
TTITLE6=Your Body Is Mine
TTITLE7=Love Is Pain
TTITLE8=No More
TTITLE9=Whoa
TTITLE10=Where You At?
TTITLE11=Angel (Slow Jam Rap)
TTITLE12=Data Track
EXTD=
EXTT0=
EXTT1=
EXTT2=
EXTT3=
EXTT4=
EXTT5=
EXTT6=
EXTT7=
EXTT8=
EXTT9=
EXTT10=
EXTT11=
EXTT12=
PLAYORDER=
